<svg width="109" height="116" viewBox="0 0 109 116" fill="none" xmlns="http://www.w3.org/2000/svg">
<path d="M89.3996 10.2002L100.7 35.7002H8.09961L14.8996 16.6002L89.3996 10.2002Z" fill="#65BC49"/>
<path d="M54.5 24C69.6878 24 82 18.6274 82 12C82 5.37258 69.6878 0 54.5 0C39.3122 0 27 5.37258 27 12C27 18.6274 39.3122 24 54.5 24Z" fill="white"/>
<path d="M5.59961 40.2002H103.3V110.9H5.59961V40.2002Z" fill="#FD9F28"/>
<path d="M0 110.9H108.8V116H0V110.9Z" fill="#041D05"/>
<path d="M5.59961 105.4H103.3V110.9H5.59961V105.4ZM3.09961 39.3H105.7V43.8H3.09961V39.3Z" fill="#CA7913"/>
<path d="M15.4004 60.4001H38.3004V105.4H15.4004V60.4001Z" fill="#041D05"/>
<path d="M17.6006 62.6001H36.2006V103.3H17.6006V62.6001Z" fill="#F3F3F3"/>
<path d="M36.1006 79.7002V103.2H17.6006V94.8002C18.0006 94.8002 18.4006 94.9002 18.8006 94.9002C26.4006 94.9002 33.0006 88.7002 36.1006 79.7002Z" fill="#DAD9D8"/>
<path d="M34.6008 81.8001C34.6008 82.6001 34.0008 83.2001 33.2008 83.2001C32.4008 83.2001 31.8008 82.6001 31.8008 81.8001C31.8008 81.0001 32.4008 80.4001 33.2008 80.4001C34.0008 80.4001 34.6008 81.0001 34.6008 81.8001ZM47.2008 53.1001H93.4008V95.7001H47.2008V53.1001Z" fill="#041D05"/>
<path d="M49.6006 55.4001H91.0006V93.5001H49.6006V55.4001Z" fill="#F3F3F3"/>
<path d="M91.0006 59.6001V93.5001H49.6006V85.6001C50.7006 85.6001 51.7006 85.7001 52.8006 85.7001C73.9006 85.6001 86.8006 70.4001 91.0006 59.6001Z" fill="#DAD9D8"/>
</svg>
