<svg width="143" height="110" viewBox="0 0 143 110" fill="none" xmlns="http://www.w3.org/2000/svg">
<path d="M69.8594 92.9072C70.7268 100.107 71.2214 103.83 75.5541 105.218C78.8711 106.16 82.2689 106.79 85.7032 107.099L104.351 108.709C104.351 108.709 123.764 109.064 131.608 105.491C139.452 101.917 139.035 99.8793 139.081 99.2733C139.127 98.6673 139.576 93.1909 139.576 93.1909L69.8594 92.9072Z" fill="#E8A970"/>
<path d="M139.081 76.7126C138.68 75.4019 137.944 74.2183 136.947 73.2786C135.461 72.071 110.744 58.1848 110.744 58.1848C97.277 55.9182 88.983 62.115 83.4145 65.6381C77.8461 69.1613 71.2305 74.1133 71.2305 74.1133C70.8487 75.0337 70.5958 76.0023 70.4789 76.9919C70.571 77.687 69.8759 78.4207 69.5046 80.3754C69.1332 82.3301 69.457 85.8562 70.6185 86.7385C71.7801 87.6208 82.9184 89.8027 86.0747 89.9884C89.231 90.174 103.974 90.6374 103.974 90.6374L120.61 90.0804C120.61 90.0804 139.635 90.8721 140.29 85.1611C140.945 79.4501 139.081 76.7126 139.081 76.7126Z" fill="#F9E7AF"/>
<path d="M70.4791 76.9922C77.2551 80.5198 87.4667 80.3757 87.4667 80.3757L109.654 80.7976L130.726 78.8949L139.576 76.9922C139.576 76.9922 141.73 85.1941 138.698 87.4429C135.667 89.6916 112.2 90.363 112.2 90.363L86.0749 89.9887C86.0749 89.9887 73.8671 89.3812 72.2422 88.0578C70.6173 86.7344 69.0473 85.7986 69.3577 85.3471C69.6682 84.8955 68.8438 80.2109 69.3577 79.6004C69.8412 78.7824 70.2181 77.9059 70.4791 76.9922Z" fill="#E8A970"/>
<path d="M71.0738 86.9702C76.1581 89.2962 87.5608 90.0092 87.5608 90.0092C87.5608 90.0092 104.642 90.7043 107.491 90.5201C110.34 90.3359 124.449 90.1027 124.449 90.1027C124.449 90.1027 137.635 88.6768 138.168 88.0604C138.702 87.444 139.196 86.9702 139.196 86.9702C139.196 86.9702 141.683 87.9579 141.637 89.5071C141.591 91.0563 142.577 92.3084 140.319 92.5877C137.999 92.5977 135.686 92.3486 133.421 91.845C132.094 92.1004 130.878 92.7603 129.94 93.7343C129.105 94.9538 127.248 96.6753 126.041 96.5104C123.823 95.8265 121.69 94.8953 119.681 93.7343C118.747 93.4675 117.77 93.3886 116.806 93.5023C115.842 93.616 114.91 93.9201 114.065 94.3968C113.275 95.1394 108.866 97.461 106.962 97.3674C105.058 97.2738 100.326 93.5828 98.1897 93.7343C95.3083 94.0796 92.4647 94.6897 89.6952 95.5568C87.6943 96.2426 85.5447 96.3714 83.4762 95.9296C81.3939 95.3243 79.3857 94.4883 77.4889 93.4373C74.8896 92.3084 72.3824 93.005 70.7114 92.7258C69.0404 92.4466 67.1838 92.4941 66.906 91.0548C66.6283 89.6156 71.0738 86.9702 71.0738 86.9702Z" fill="#419B46"/>
<path d="M98.0986 94.9821C98.0986 94.9821 106.963 101.5 108.681 102.614C110.4 103.728 113.972 105.676 115.783 105.119C117.167 104.6 118.397 103.738 119.356 102.614L122.792 95.7901C122.792 95.7901 121.91 94.4192 118.707 93.7344C115.505 93.0497 112.301 95.7441 111.095 96.3011C109.889 96.8581 108.125 98.2498 105.663 97.1819C103.195 96.2765 100.668 95.5415 98.0986 94.9821Z" fill="#FD9F28"/>
<path d="M71.7803 92.8031C73.328 95.7128 78.4642 98.5335 82.3631 97.3705C86.2621 96.2075 78.7731 93.7344 78.7731 93.7344C78.7731 93.7344 76.1679 93.1135 74.8088 92.8031C73.8068 92.6291 72.7823 92.6291 71.7803 92.8031ZM88.2108 96.5105L94.5546 94.0166L99.5066 97.0184C99.5066 97.0184 100.064 97.7299 97.2787 98.4726C94.9907 99.0779 92.5792 99.0327 90.3155 98.3419C89.4699 97.9199 88.7456 97.2897 88.2108 96.5105ZM135.525 93.6245C133.855 96.8922 132.678 97.8651 130.945 98.3359C129.211 98.8068 122.792 97.7552 122.792 97.7552L123.641 95.6757C123.641 95.6757 124.757 97.8146 127.603 95.7723C130.449 93.73 130.759 92.7407 130.884 92.5551C131.257 92.3189 131.675 92.1627 132.112 92.0962C132.549 92.0298 132.994 92.0545 133.421 92.1689C134.239 92.4592 134.965 92.9615 135.525 93.6245Z" fill="#E25A4B"/>
<path d="M69.1865 84.0381C77.8429 87.9875 101.609 88.8862 113.988 88.0603C126.367 87.2345 133.85 87.9757 139.577 85.005C139.577 85.005 140.228 87.4112 135.525 88.6842C130.823 89.9571 102.229 90.5452 102.229 90.5452C102.229 90.5452 80.0115 89.7714 75.4932 88.595C70.9748 87.4187 70.3629 87.0355 69.8609 86.1918C69.5175 85.5165 69.2895 84.7886 69.1865 84.0381ZM70.4342 93.4372C71.8259 97.5069 75.1218 99.8032 80.0412 99.4215C81.6047 99.31 83.1607 99.1117 84.7021 98.8274C85.9012 98.607 87.1391 98.8559 88.1599 99.5225C90.1345 100.789 92.449 101.422 94.7933 101.336C96.123 101.307 97.4473 101.157 98.7502 100.89C99.57 100.726 100.416 100.739 101.23 100.93C102.044 101.12 102.808 101.484 103.469 101.996C106.783 104.587 113.242 108.73 118.903 106.967C120.094 105.877 121.167 104.665 122.105 103.352C122.648 102.613 123.368 102.022 124.198 101.632C125.028 101.243 125.943 101.068 126.858 101.124C129.68 101.257 133.621 101.07 135.528 99.2715C136.414 98.5728 137.069 97.6225 137.406 96.5453C137.742 95.468 137.745 94.3142 137.414 93.2352L135.528 92.5549C135.528 92.5549 134.104 98.1114 130.947 98.3342C127.791 98.557 123.259 98.6194 122.245 97.7535C122.245 97.7535 120.861 103.759 116.59 104.376C112.32 104.994 100.252 97.3688 100.252 97.3688C98.1408 98.5495 95.7952 99.2499 93.3823 99.42C90.9508 99.2296 88.6675 98.1759 86.9449 96.4494C86.9449 96.4494 81.375 98.4545 78.6524 97.6376C75.9298 96.8207 71.7799 93.2366 71.7799 93.2366L70.4342 93.4372Z" fill="#D68F5F"/>
<path d="M69.8594 88.0605C82.4236 92.7422 97.5129 92.0099 104.047 92.0708C110.581 92.1317 135.029 91.4366 137.662 90.0731C140.296 88.7095 140.317 87.5881 140.317 87.5881L139.605 86.9747C139.605 86.9747 138.496 88.2194 134.332 88.8744C120.199 90.0902 106.014 90.5859 91.8301 90.3597C84.6492 89.9246 77.5369 88.7104 70.6184 86.7385L69.8594 88.0605Z" fill="#65BC49"/>
<path d="M77.6328 69.843C86.2405 65.8022 96.075 65.2371 105.089 68.2656C108.896 69.6574 119.496 72.2299 126.271 66.7803C126.271 66.7803 111.216 57.1169 105.179 57.3085C92.9256 57.6947 77.6328 69.843 77.6328 69.843Z" fill="#FFF0C5"/>
<path d="M140.467 86.6554C141.086 85.5204 141.405 84.2465 141.394 82.954C141.404 81.6793 141.228 80.41 140.873 79.1858C140.697 78.3626 140.419 77.5644 140.047 76.8093C140.087 76.3886 140.032 75.9643 139.887 75.5676C139.355 74.4837 138.581 73.5372 137.623 72.8019C133.233 68.9223 127.657 66.3259 122.506 63.6346C117.307 60.9194 112.226 57.215 106.259 56.4843C102.844 56.2429 99.4201 56.8193 96.272 58.1656C93.0155 59.3523 89.8595 60.7982 86.8343 62.4894C83.9941 64.0654 81.2535 65.8144 78.6279 67.7266C75.9604 69.4234 73.4848 71.4045 71.2444 73.6352C70.4937 74.3028 69.9408 75.164 69.6462 76.1246C69.5752 76.4643 69.5818 76.8156 69.6655 77.1524C68.663 78.4491 68.3703 82.3005 68.3867 83.0536C68.4823 84.2135 68.7239 85.3569 69.1056 86.4564C69.145 86.5714 69.1973 86.6815 69.2615 86.7847C68.4157 87.2109 67.6387 87.7617 66.9563 88.4185C65.9671 89.6365 65.4472 90.994 66.5107 92.3323C66.8286 92.7429 67.2282 93.0829 67.6843 93.3309C68.1405 93.5789 68.6432 93.7295 69.1605 93.7731C69.1754 94.1949 69.2021 94.6123 69.2333 95.0282C69.3201 96.7361 69.6195 98.4265 70.1245 100.06C70.6307 101.699 71.5601 103.175 72.8189 104.34C74.5189 105.682 76.5521 106.536 78.7007 106.811C82.8328 107.54 87.0378 108.191 91.1952 108.742C101.732 110.129 112.415 109.956 122.901 108.227C127.585 107.462 133.222 106.582 137.203 103.808C138.062 103.229 138.791 102.477 139.341 101.599C139.892 100.722 140.253 99.7387 140.401 98.7132C140.549 97.5331 140.549 96.339 140.401 95.1589C140.364 94.8054 140.349 94.2276 140.28 93.6542C140.69 93.4841 141.075 93.2604 141.425 92.9888C141.985 92.6159 142.426 92.0913 142.698 91.4765C142.97 90.8617 143.061 90.1822 142.96 89.5175C142.86 88.8529 142.572 88.2306 142.13 87.7238C141.689 87.2169 141.112 86.8463 140.467 86.6554ZM71.9633 75.1532C72.7771 74.3165 73.6417 73.5307 74.5522 72.8004C79.263 69.0395 84.3384 65.7594 89.7024 63.0092C94.604 60.502 100.764 57.4438 106.408 58.3394C112.296 59.2737 117.347 63.0137 122.529 65.6858C125.273 67.0998 127.992 68.5613 130.647 70.1417C133.135 71.4523 135.415 73.1252 137.412 75.1056C137.796 75.4327 138.062 75.8768 138.17 76.3696C138.178 76.5347 138.128 76.6973 138.029 76.8297C137.93 76.962 137.788 77.0556 137.628 77.0945C136.84 77.2877 136.044 77.4399 135.241 77.5505C132.909 77.9416 130.572 78.2941 128.23 78.608C124.719 79.0793 121.196 79.4581 117.662 79.7443C114.128 80.0304 110.588 80.2196 107.042 80.3117C103.504 80.4028 99.9654 80.3948 96.4264 80.2879C92.8874 80.181 89.3534 79.971 85.8243 79.6581C82.2848 79.3447 78.7408 79.0789 75.2251 78.559C73.8567 78.3478 72.5498 77.8448 71.393 77.0841C70.9043 76.282 71.6499 75.4755 71.9633 75.1532ZM70.5612 79.8468C70.6191 79.6076 70.7617 79.2437 70.8939 78.8471C71.6999 79.3533 72.585 79.7208 73.5125 79.9344C76.2034 80.488 78.9272 80.868 81.6669 81.0721C87.0536 81.6663 92.4602 82.0272 97.8865 82.1549C107.583 82.3606 117.281 81.8438 126.901 80.6087C129.258 80.3117 131.61 79.975 133.954 79.5987C135.175 79.4007 136.394 79.1952 137.61 78.9823C138.007 78.9123 138.389 78.7725 138.737 78.5694C138.777 78.6497 138.813 78.732 138.844 78.816C139.342 80.1591 139.589 81.5825 139.572 83.0149C139.611 84.1874 139.254 85.3388 138.557 86.2826C137.395 87.2874 135.95 87.9062 134.421 88.0531C128.242 89.427 121.695 89.0305 115.409 89.2028C103.892 89.5206 92.2958 89.9157 80.841 88.4215C78.1427 88.0866 75.465 87.6021 72.8203 86.9703C72.6956 86.9391 72.4861 86.8812 72.247 86.804C71.7869 86.6776 71.3641 86.4422 71.0142 86.1178C70.4325 85.2504 70.1513 84.2163 70.2136 83.1739C70.1765 82.0541 70.2934 80.9346 70.5612 79.8468ZM138.618 98.3122C138.418 99.4605 137.912 100.534 137.154 101.419C136.397 102.305 135.414 102.97 134.311 103.346C129.713 105.184 124.876 106.358 119.946 106.832C114.722 107.558 109.452 107.906 104.177 107.872C98.8665 107.755 93.5686 107.308 88.3137 106.535C85.6802 106.181 83.0527 105.792 80.4237 105.427C78.5944 105.268 76.8211 104.716 75.2251 103.808C73.3851 102.605 72.073 100.746 71.5563 98.6092C71.1764 97.0216 71.0135 95.3897 71.0721 93.7582L71.237 93.7389C71.3178 94.2236 71.54 94.6737 71.8757 95.0326C72.7267 96.1393 73.8535 97.0029 75.1434 97.5368C78.1918 98.6169 81.4963 98.7459 84.6197 97.9067C85.0653 97.8116 86.7704 97.1343 86.9486 97.1002C87.0244 97.3527 87.4165 97.6676 87.6913 97.871C88.6639 98.587 89.7472 99.1389 90.8981 99.5049C92.2237 100.005 93.6375 100.229 95.0527 100.163C96.468 100.097 97.8549 99.7429 99.1282 99.1217C99.5632 98.8831 99.9456 98.5593 100.253 98.1696C103.241 100.031 105.949 102.097 107.794 103.107C110.17 104.412 114.574 107.312 117.39 105.996C119.832 104.861 121.242 101.154 122.528 98.936C123.397 99.4119 124.344 99.7297 125.325 99.8747C127.087 100.153 128.89 100.029 130.598 99.5123C133.32 98.6969 135.866 96.6902 136.162 93.8087C136.391 93.8864 136.625 93.9494 136.863 93.9973C137.382 94.0966 137.912 94.1281 138.44 94.0909C138.699 95.4825 138.759 96.9038 138.618 98.3122ZM73.0625 93.5191C74.2078 93.3236 75.3842 93.4259 76.4787 93.8161C78.0665 94.5038 79.3721 95.6847 80.9539 96.3872C81.0817 96.4437 81.2109 96.4942 81.3401 96.5447C81.1782 96.5565 81.0163 96.5758 80.8559 96.5833C77.9373 96.7125 74.7364 96.0961 73.0625 93.5191ZM88.9048 96.5773C90.5223 96.0486 92.1101 95.3579 93.7365 94.9821C93.7725 94.996 93.8092 95.0079 93.8464 95.0178C95.5741 95.5935 97.2348 96.3534 98.8 97.2843C98.4123 97.4685 97.9578 97.6705 97.7083 97.773C96.9977 98.0645 96.246 98.2429 95.4803 98.3018C93.1617 98.4319 90.8611 97.8286 88.9048 96.5773ZM99.2485 95.4084C101.892 96.4184 104.276 98.1518 107.201 98.333C110.818 98.5573 112.775 95.7262 115.845 94.5083C118.344 93.5191 120.227 94.893 122.241 96.0233C121.752 96.6877 121.306 97.3822 120.904 98.1028C119.894 99.7366 119.077 101.519 117.917 103.058C116.729 104.625 115.721 104.608 113.9 103.974C108.429 102.06 104.401 98.3018 99.2485 95.4084ZM123.64 97.4121C123.789 97.2502 123.937 97.0749 124.086 96.8863C125.052 97.2433 126.1 97.3174 127.107 97.0999C128.114 96.8823 129.038 96.3821 129.77 95.6579C130.727 94.743 130.972 93.2591 132.429 92.9621C133.072 92.8598 133.73 92.9242 134.341 93.1492C134.353 93.4444 134.339 93.7401 134.3 94.033C134.081 94.7833 133.689 95.472 133.156 96.0442C132.624 96.6164 131.965 97.0563 131.232 97.3289C129.558 98.0853 127.706 98.3589 125.885 98.1191C125.105 97.9996 124.348 97.7612 123.64 97.4121ZM140.442 91.4486C140.194 91.6658 139.917 91.8477 139.619 91.9892C139.228 92.1738 138.803 92.2749 138.37 92.2863C136.179 92.3694 133.801 90.5796 131.547 91.3238C129.944 91.854 129.684 93.0675 128.67 94.1756C128.217 94.6648 127.643 95.0245 127.005 95.2177C126.368 95.4109 125.69 95.4306 125.042 95.2747C124.979 95.2584 124.912 95.2376 124.849 95.2168C124.515 95.1112 124.19 94.9791 123.877 94.8217C122.714 94.1049 121.515 93.448 120.285 92.8537C118.754 92.2362 117.053 92.1836 115.486 92.7051C112.422 93.7775 110.333 96.9516 106.789 96.463C103.505 96.0055 100.857 93.6409 97.6043 93.0334C96.4531 92.8286 95.2739 92.8407 94.1272 93.069C93.4742 93.1886 92.8293 93.3488 92.1963 93.5488C90.6768 94.0122 89.1766 94.6316 87.6423 95.0727C83.8369 96.1659 81.3654 94.4281 78.2061 92.6531C76.6963 91.7668 74.937 91.4015 73.1991 91.6134C72.5753 91.6803 71.8623 91.8526 71.1494 91.9521C70.5113 92.0723 69.8565 92.0723 69.2185 91.9521C69.0116 91.9082 68.8117 91.8362 68.6243 91.7382C66.3503 90.5841 69.1605 89.3453 70.9607 88.1838C76.2325 89.4843 81.5948 90.3854 87.0021 90.8797C98.5415 91.7382 110.094 91.0668 121.649 90.896C124.532 90.8544 127.415 90.7965 130.287 90.5158C133.023 90.4007 135.719 89.8091 138.251 88.7676C138.631 88.5782 138.986 88.3422 139.307 88.065C139.411 88.1571 139.525 88.2373 139.646 88.3041C141.024 89.0483 141.977 90.1058 140.442 91.4486Z" fill="#6B3D3D"/>
<path d="M62.7587 39.3558H62.147C62.147 23.3271 49.1532 10.3328 33.124 10.3328C39.377 10.3328 44.4458 23.3271 44.4458 39.3558H44.6847C45.1349 39.3558 45.4997 40.5114 45.4997 41.9362C45.4997 43.361 45.1349 44.5166 44.6847 44.5166H44.4458L41.3625 103.607C41.2524 105.654 40.5694 107.179 39.7632 107.179H50.1431C52.2103 107.179 53.9603 105.654 54.243 103.607L62.1475 44.5166H62.7591C63.9129 44.5166 64.8483 43.3614 64.8483 41.9362C64.8483 40.5109 63.9124 39.3558 62.7587 39.3558Z" fill="#D3BA2A"/>
<path d="M24.5404 103.545L21.8023 44.517H21.5635C21.1133 44.517 20.7484 43.3619 20.7484 41.9367C20.7484 40.5114 21.1133 39.3563 21.5635 39.3563H21.8023C21.8023 23.3276 26.8712 10.3333 33.1242 10.3333C17.095 10.3333 4.10115 23.3276 4.10115 39.3563H3.48952C2.33579 39.3563 1.40039 40.5119 1.40039 41.9367C1.40039 43.3614 2.33579 44.517 3.48952 44.517H4.10115L11.1197 103.545C11.3744 105.62 13.1365 107.18 15.2275 107.18H26.143C25.327 107.179 24.6398 105.62 24.5404 103.545Z" fill="#FFECA7"/>
<path d="M41.3603 103.607L44.4436 44.5166H44.6825C45.1327 44.5166 45.4975 43.3614 45.4975 41.9362C45.4975 40.5109 45.1327 39.3558 44.6825 39.3558H44.4436C44.4436 23.3271 39.3748 10.3328 33.1218 10.3328C26.8689 10.3328 21.8 23.3271 21.8 39.3558H21.5611C21.1109 39.3558 20.7461 40.5114 20.7461 41.9362C20.7461 43.361 21.1109 44.5166 21.5611 44.5166H21.8L24.5381 103.545C24.6374 105.62 25.3246 107.179 26.1406 107.179H39.761C40.5677 107.179 41.2502 105.654 41.3603 103.607Z" fill="#EEE045"/>
<path d="M36.8571 1.39966H29.3926V39.3563H36.8571V1.39966Z" fill="#65BC49"/>
<path d="M44.4458 44.5166L41.3625 103.607C41.2524 105.654 40.5698 107.179 39.7637 107.179H50.1436C52.2103 107.179 53.9607 105.654 54.243 103.607L62.1475 44.5166H44.4458Z" fill="#C87916"/>
<path d="M24.5408 103.545L21.8027 44.5171H4.10156L11.1201 103.545C11.3748 105.62 13.1369 107.18 15.2279 107.18H26.1429C25.3274 107.179 24.6402 105.62 24.5408 103.545Z" fill="#F9B866"/>
<path d="M41.3616 103.607L44.4449 44.5166H21.8018L24.5398 103.545C24.6392 105.619 25.3264 107.179 26.1419 107.179H39.7628C40.569 107.179 41.2515 105.654 41.3616 103.607Z" fill="#FD9F28"/>
<path d="M50.1424 108.579H15.2271C12.4339 108.579 10.0705 106.489 9.73038 103.716L2.71093 44.6824C2.66381 44.2849 2.78884 43.8865 3.0543 43.5875C3.31975 43.2884 3.70091 43.1172 4.10073 43.1172H62.1467C62.5503 43.1172 62.9343 43.2912 63.2002 43.5949C63.4656 43.8982 63.5874 44.3022 63.5342 44.702L55.6302 103.792C55.2528 106.524 52.894 108.579 50.1424 108.579ZM5.67668 45.9169L12.5095 103.38C12.677 104.746 13.8457 105.78 15.2271 105.78H50.1429C51.5037 105.78 52.6701 104.764 52.8562 103.416L60.5475 45.9173H5.67668V45.9169Z" fill="#041D05"/>
<path d="M62.7585 45.9168H3.4892C1.56522 45.9168 0 44.1314 0 41.9368C0 39.7422 1.56475 37.9568 3.4892 37.9568H62.7589C64.6829 37.9568 66.2481 39.7422 66.2481 41.9368C66.2481 44.1314 64.6829 45.9168 62.7585 45.9168ZM3.4892 40.7555C3.20788 40.7555 2.7992 41.2155 2.7992 41.9363C2.7992 42.6571 3.20788 43.1171 3.4892 43.1171H62.7589C63.0402 43.1171 63.4489 42.6571 63.4489 41.9363C63.4489 41.2155 63.0402 40.7555 62.7589 40.7555H3.4892Z" fill="#041D05"/>
<path d="M36.8563 40.7554H29.3918C28.6187 40.7554 27.9922 40.1288 27.9922 39.3558V1.3996C27.9922 0.626554 28.6187 0 29.3918 0H36.8563C37.6294 0 38.2559 0.626554 38.2559 1.3996V39.3558C38.2559 40.1288 37.6294 40.7554 36.8563 40.7554ZM30.7914 37.9562H35.4567V2.7992H30.7914V37.9562Z" fill="#041D05"/>
<path d="M62.1468 40.7556H4.10077C3.32773 40.7556 2.70117 40.1291 2.70117 39.356C2.70117 24.1018 14.099 11.1341 29.2133 9.19189L29.5697 11.9682C16.3127 13.672 6.2053 24.72 5.53582 37.9564H60.7117C60.0423 24.72 49.9348 13.6715 36.6778 11.9682L37.0343 9.19189C52.1485 11.1341 63.5464 24.1018 63.5464 39.356C63.5464 40.1291 62.9198 40.7556 62.1468 40.7556Z" fill="#041D05"/>
<path d="M43.1396 49.4956C46.0699 49.4956 48.446 55.0096 48.446 61.8111C48.446 68.6127 46.0704 74.1267 43.1396 74.1267C49.9412 74.1267 55.4552 68.6127 55.4552 61.8111C55.4552 55.0096 49.9412 49.4956 43.1396 49.4956Z" fill="#D3BA2A"/>
<path d="M37.8339 61.8111C37.8339 55.0096 40.2095 49.4956 43.1398 49.4956C36.3382 49.4956 30.8242 55.0096 30.8242 61.8111C30.8242 68.6127 36.3382 74.1267 43.1398 74.1267C40.2095 74.1267 37.8339 68.6127 37.8339 61.8111Z" fill="#EDE27E"/>
<path d="M43.1399 74.1267C46.0702 74.1267 48.4457 68.6128 48.4457 61.8111C48.4457 55.0095 46.0702 49.4956 43.1399 49.4956C40.2095 49.4956 37.834 55.0095 37.834 61.8111C37.834 68.6128 40.2095 74.1267 43.1399 74.1267Z" fill="#EEE045"/>
<path d="M43.1399 75.5265C35.5774 75.5265 29.4248 69.3738 29.4248 61.8113C29.4248 54.2488 35.5774 48.0962 43.1399 48.0962C50.7024 48.0962 56.8551 54.2488 56.8551 61.8113C56.8551 69.3738 50.7024 75.5265 43.1399 75.5265ZM43.1399 50.8954C37.1207 50.8954 32.224 55.7921 32.224 61.8113C32.224 67.8305 37.1207 72.7273 43.1399 72.7273C49.1591 72.7273 54.0559 67.8305 54.0559 61.8113C54.0559 55.7921 49.1591 50.8954 43.1399 50.8954Z" fill="#041D05"/>
<path d="M43.1394 69.3374C47.2959 69.3374 50.6655 65.9678 50.6655 61.8113C50.6655 57.6547 47.2959 54.2852 43.1394 54.2852C38.9828 54.2852 35.6133 57.6547 35.6133 61.8113C35.6133 65.9678 38.9828 69.3374 43.1394 69.3374Z" fill="#FD9F28"/>
<path d="M43.1405 70.7374C38.2186 70.7374 34.2148 66.7331 34.2148 61.8112C34.2148 56.8893 38.2186 52.8855 43.1405 52.8855C48.0625 52.8855 52.0667 56.8893 52.0667 61.8112C52.0667 66.7331 48.0625 70.7374 43.1405 70.7374ZM43.1405 55.6847C39.7624 55.6847 37.014 58.433 37.014 61.8112C37.014 65.1894 39.7624 67.9382 43.1405 67.9382C46.5187 67.9382 49.2675 65.1894 49.2675 61.8112C49.2675 58.433 46.5187 55.6847 43.1405 55.6847Z" fill="#041D05"/>
<path d="M43.1389 67.2358C42.3658 67.2358 41.7393 66.6092 41.7393 65.8362V65.0408C41.7393 64.2677 42.3658 63.6412 43.1389 63.6412C43.9119 63.6412 44.5385 64.2677 44.5385 65.0408V65.8362C44.5385 66.6092 43.9119 67.2358 43.1389 67.2358ZM43.1389 60.2401C42.3658 60.2401 41.7393 59.6136 41.7393 58.8405V58.0451C41.7393 57.2721 42.3658 56.6455 43.1389 56.6455C43.9119 56.6455 44.5385 57.2721 44.5385 58.0451V58.8405C44.5385 59.6136 43.9119 60.2401 43.1389 60.2401ZM40.0388 63.3402H39.2433C38.4703 63.3402 37.8438 62.7137 37.8438 61.9407C37.8438 61.1676 38.4703 60.5411 39.2433 60.5411H40.0388C40.8118 60.5411 41.4384 61.1676 41.4384 61.9407C41.4384 62.7137 40.8118 63.3402 40.0388 63.3402ZM47.0344 63.3402H46.239C45.466 63.3402 44.8394 62.7137 44.8394 61.9407C44.8394 61.1676 45.466 60.5411 46.239 60.5411H47.0344C47.8075 60.5411 48.434 61.1676 48.434 61.9407C48.434 62.7137 47.808 63.3402 47.0344 63.3402Z" fill="#041D05"/>
<path d="M28.7367 79.1038C28.7367 79.1043 28.7367 79.1043 28.7367 79.1038C25.4924 75.8712 20.2425 75.8745 17.0029 79.1141C18.0718 78.0448 21.5624 79.8018 24.8024 83.0381C25.5158 82.3248 27.847 83.499 30.0089 85.661C35.3689 91.021 35.2649 96.0842 35.2649 96.0842L36.5763 94.7728C36.5763 94.7728 41.9261 84.4638 36.5661 79.1038C34.4041 76.9419 30.8986 76.9419 28.7367 79.1038Z" fill="#419B46"/>
<path d="M23.5494 92.1207C21.3875 89.9588 20.2132 87.6276 20.9265 86.9142C17.6902 83.6742 15.9332 80.184 17.0025 79.1147C13.7629 82.3544 13.7597 87.6042 16.9923 90.848C16.9923 90.848 16.9923 90.848 16.9918 90.8485C14.8299 93.0104 14.8299 96.516 16.9918 98.6779C22.3518 104.038 32.6608 98.6881 32.6608 98.6881L33.9722 97.3767C33.9727 97.3767 28.9094 97.4807 23.5494 92.1207Z" fill="#A4D4A0"/>
<path d="M30.0087 85.6611C27.8468 83.4992 25.5155 82.3249 24.8022 83.0382C21.5621 79.8019 18.072 78.0449 17.0027 79.1142C15.9334 80.1831 17.6903 83.6737 20.9267 86.9137C20.2133 87.6271 21.3876 89.9583 23.5495 92.1202C28.9095 97.4802 33.9728 97.3762 33.9728 97.3762L34.6189 96.7301L35.2651 96.0839C35.2646 96.0848 35.3687 91.0211 30.0087 85.6611Z" fill="#65BC49"/>
<path d="M23.49 102.454C20.0041 102.454 17.1858 101.245 15.2982 98.877C13.4199 96.521 13.4171 93.217 15.134 90.8391C12.2578 87.0392 12.5522 81.5854 16.0134 78.1247C19.4736 74.664 24.9279 74.3691 28.7278 77.2458C31.1057 75.5284 34.4102 75.5312 36.7657 77.4086C40.3505 80.2661 41.2785 85.258 39.3792 91.4647C38.6617 93.8077 37.3582 95.971 35.6091 97.7196C33.8601 99.4686 31.6968 100.773 29.3539 101.49C27.247 102.135 25.2806 102.454 23.49 102.454ZM22.8747 78.086C21.106 78.086 19.3379 78.7587 17.9924 80.1042C15.3047 82.7919 15.301 87.168 17.984 89.8599C18.2537 90.1305 18.4011 90.4995 18.3917 90.8811C18.3824 91.2623 18.2182 91.6243 17.9359 91.8818C16.4314 93.2548 16.2345 95.5614 17.4862 97.1322C20.1664 100.496 24.9731 99.9025 28.5337 98.8136C30.4404 98.2295 32.2025 97.1672 33.6292 95.7405C35.0554 94.3139 36.1177 92.5522 36.7018 90.6455C37.7911 87.0854 38.3836 82.2787 35.0204 79.5975C33.4505 78.3463 31.143 78.5427 29.7696 80.0473C29.512 80.3291 29.1505 80.4938 28.7684 80.5031C28.3975 80.5302 28.0182 80.3645 27.7476 80.0953C26.4045 78.7555 24.6391 78.086 22.8747 78.086Z" fill="#041D05"/>
<path d="M23.8618 83.9965L21.8828 85.9756L36.7218 100.814L38.7007 98.835L23.8618 83.9965Z" fill="#041D05"/>
</svg>
