<svg width="85" height="111" viewBox="0 0 85 111" fill="none" xmlns="http://www.w3.org/2000/svg">
<path d="M77.7072 72.869L77.6574 74.8119L77.4264 74.8051H64.7751L64.4219 74.8142L64.3562 72.244H64.3404V75.9735C64.3473 76.6888 64.0734 77.3783 63.5777 77.894C63.0819 78.4096 62.4037 78.7104 61.6887 78.7316C61.3341 78.7355 60.9821 78.6691 60.6533 78.5361C60.3245 78.4032 60.0253 78.2063 59.773 77.957C59.5207 77.7077 59.3204 77.4108 59.1836 77.0836C59.0468 76.7563 58.9762 76.4052 58.976 76.0505V61.1031C58.9047 60.4003 58.9817 59.6904 59.2019 59.0193C59.4221 58.3481 59.7807 57.7306 60.2544 57.2067C60.7282 56.6828 61.3066 56.2641 61.9523 55.9777C62.598 55.6913 63.2966 55.5435 64.003 55.5439H66.718L71.0272 59.7331L75.4926 55.5439H78.0514C78.7576 55.5438 79.4559 55.6918 80.1014 55.9784C80.7468 56.2649 81.3249 56.6837 81.7984 57.2076C82.272 57.7314 82.6303 58.3488 82.8504 59.0198C83.0705 59.6908 83.1474 60.4005 83.0762 61.1031V76.0483C83.0762 76.7602 82.7933 77.443 82.2899 77.9465C81.7865 78.4499 81.1037 78.7327 80.3917 78.7327C79.6797 78.7327 78.9969 78.4499 78.4935 77.9465C77.9901 77.443 77.7072 76.7602 77.7072 76.0483V72.869Z" fill="#339E35"/>
<path d="M71.0408 106.45C71.0412 107.213 70.742 107.945 70.2078 108.489C69.6735 109.034 68.9469 109.346 68.1844 109.36C67.422 109.373 66.6846 109.087 66.1312 108.562C65.5778 108.038 65.2526 107.317 65.2257 106.554L64.4219 74.8141L64.7751 74.805H77.4264L77.6574 74.8118L76.8535 106.554C76.8266 107.316 76.5016 108.037 75.9484 108.562C75.3952 109.086 74.6582 109.372 73.896 109.359C73.1338 109.345 72.4075 109.033 71.8734 108.489C71.3394 107.945 71.0404 107.213 71.0408 106.45ZM75.7191 44.0836V46.2416C75.7191 47.5028 75.2181 48.7123 74.3263 49.6041C73.4345 50.4959 72.225 50.9969 70.9638 50.9969H70.7487C69.4875 50.9969 68.278 50.4959 67.3862 49.6041C66.4944 48.7123 65.9934 47.5028 65.9934 46.2416V44.0836C65.9934 42.8225 66.4944 41.6129 67.3862 40.7212C68.278 39.8294 69.4875 39.3284 70.7487 39.3284H70.9638C72.225 39.3284 73.4345 39.8294 74.3263 40.7212C75.2181 41.6129 75.7191 42.8225 75.7191 44.0836Z" fill="#FD9F28"/>
<path d="M63.0784 20.8506H30.5771V7.04674V1.58496H74.0019V25.8188L67.066 20.8506H63.0784Z" fill="#FD9F28"/>
<path d="M63.0783 20.8508V26.3103H22.0629L15.127 31.2807V7.04688H30.5431H30.5771V20.8508H63.0783Z" fill="#339E35"/>
<path d="M49.0257 72.8667L48.9759 74.8119L48.7427 74.8051H36.0936L35.7381 74.8141L35.6724 72.244H35.6566V75.9735C35.6638 76.6889 35.3901 77.3786 34.8943 77.8943C34.3985 78.4101 33.7201 78.7107 33.005 78.7316C32.6503 78.7355 32.2984 78.6691 31.9695 78.5361C31.6407 78.4032 31.3415 78.2063 31.0892 77.957C30.837 77.7077 30.6366 77.4108 30.4998 77.0836C30.363 76.7563 30.2924 76.4052 30.2922 76.0505V61.1031C30.2212 60.4004 30.2984 59.6906 30.5187 59.0196C30.739 58.3485 31.0976 57.7312 31.5713 57.2073C32.045 56.6835 32.6233 56.2648 33.2689 55.9782C33.9144 55.6917 34.6129 55.5438 35.3192 55.5439H38.0365L42.3434 59.7331L46.8088 55.5439H49.3676C50.0739 55.5438 50.7724 55.6917 51.4179 55.9782C52.0635 56.2648 52.6418 56.6835 53.1155 57.2073C53.5892 57.7312 53.9478 58.3485 54.1681 59.0196C54.3885 59.6906 54.4656 60.4004 54.3947 61.1031V76.0483C54.3947 76.7602 54.1118 77.443 53.6084 77.9465C53.1049 78.4499 52.4221 78.7327 51.7102 78.7327C50.9982 78.7327 50.3154 78.4499 49.812 77.9465C49.3085 77.443 49.0257 76.7602 49.0257 76.0483V72.8667Z" fill="#FD9F28"/>
<path d="M42.3567 106.45C42.3571 107.213 42.0581 107.945 41.524 108.489C40.99 109.033 40.2637 109.345 39.5015 109.359C38.7393 109.372 38.0022 109.086 37.4491 108.562C36.8959 108.037 36.5708 107.316 36.5439 106.554L35.7378 74.8141L36.0933 74.805H48.7423L48.9756 74.8118L48.1694 106.554C48.1425 107.316 47.8175 108.037 47.2643 108.562C46.7111 109.086 45.9741 109.372 45.2119 109.359C44.4497 109.345 43.7234 109.033 43.1893 108.489C42.6553 107.945 42.3563 107.213 42.3567 106.45ZM47.035 44.0836V46.2416C47.035 47.5028 46.534 48.7123 45.6422 49.6041C44.7504 50.4959 43.5409 50.9969 42.2797 50.9969H42.0668C40.8057 50.9969 39.5961 50.4959 38.7043 49.6041C37.8126 48.7123 37.3116 47.5028 37.3116 46.2416V44.0836C37.3116 42.8225 37.8126 41.6129 38.7043 40.7212C39.5961 39.8294 40.8057 39.3284 42.0668 39.3284H42.2797C43.5409 39.3284 44.7504 39.8294 45.6422 40.7212C46.534 41.6129 47.035 42.8225 47.035 44.0836ZM20.342 72.8667L20.2922 74.8118L20.0589 74.805H7.40991L7.05439 74.8141L6.98872 72.244H6.97287V75.9735C6.98012 76.6888 6.70641 77.3785 6.21057 77.8943C5.71474 78.41 5.03636 78.7106 4.32124 78.7315C3.96675 78.7352 3.61506 78.6685 3.28648 78.5354C2.9579 78.4024 2.65895 78.2055 2.40691 77.9562C2.15488 77.7069 1.95474 77.4101 1.81809 77.083C1.68143 76.7559 1.61095 76.4049 1.61073 76.0504V61.103C1.53948 60.4004 1.61638 59.6907 1.83647 59.0197C2.05655 58.3487 2.41493 57.7314 2.88845 57.2075C3.36198 56.6836 3.94012 56.2649 4.58554 55.9783C5.23096 55.6917 5.9293 55.5438 6.63547 55.5439H9.35278L13.6597 59.733L18.1251 55.5439H20.6862C21.3924 55.5438 22.0907 55.6917 22.7361 55.9783C23.3815 56.2649 23.9597 56.6836 24.4332 57.2075C24.9067 57.7314 25.2651 58.3487 25.4852 59.0197C25.7053 59.6907 25.7822 60.4004 25.7109 61.103V76.0482C25.7109 76.7601 25.4281 77.4429 24.9247 77.9464C24.4212 78.4498 23.7384 78.7327 23.0265 78.7327C22.3145 78.7327 21.6317 78.4498 21.1283 77.9464C20.6248 77.4429 20.342 76.7601 20.342 76.0482V72.8667Z" fill="#339E35"/>
<path d="M13.6736 106.45C13.674 107.213 13.375 107.945 12.8409 108.489C12.3069 109.033 11.5806 109.345 10.8184 109.359C10.0562 109.372 9.31914 109.086 8.76596 108.562C8.21277 108.037 7.88772 107.316 7.86082 106.554L7.05469 74.8141L7.4102 74.805H20.0592L20.2925 74.8118L19.4863 106.554C19.4594 107.316 19.1344 108.037 18.5812 108.562C18.028 109.086 17.291 109.372 16.5288 109.359C15.7666 109.345 15.0403 109.033 14.5062 108.489C13.9722 107.945 13.6732 107.213 13.6736 106.45ZM18.3519 44.0836V46.2416C18.3519 47.5028 17.8509 48.7123 16.9591 49.6041C16.0673 50.4959 14.8578 50.9969 13.5966 50.9969H13.3837C12.1226 50.9969 10.913 50.4959 10.0212 49.6041C9.12946 48.7123 8.62846 47.5028 8.62846 46.2416V44.0836C8.62846 42.8225 9.12946 41.6129 10.0212 40.7212C10.913 39.8294 12.1226 39.3284 13.3837 39.3284H13.5966C14.8578 39.3284 16.0673 39.8294 16.9591 40.7212C17.8509 41.6129 18.3519 42.8225 18.3519 44.0836Z" fill="#FD9F28"/>
<path d="M13.3838 52.5821H13.5965C15.2775 52.5802 16.889 51.9116 18.0777 50.723C19.2663 49.5343 19.9349 47.9228 19.9368 46.2418V44.0838C19.9349 42.4028 19.2663 40.7912 18.0777 39.6026C16.889 38.4139 15.2775 37.7453 13.5965 37.7434H13.3838C11.7029 37.7453 10.0913 38.4139 8.90264 39.6026C7.71401 40.7912 7.04539 42.4028 7.04347 44.0838V46.2418C7.04533 47.9228 7.71393 49.5344 8.90258 50.723C10.0912 51.9117 11.7028 52.5803 13.3838 52.5821ZM10.2137 44.0838C10.2146 43.2433 10.5488 42.4374 11.1432 41.8431C11.7375 41.2488 12.5433 40.9145 13.3838 40.9136H13.5965C14.437 40.9145 15.2428 41.2488 15.8371 41.8431C16.4315 42.4374 16.7658 43.2433 16.7667 44.0838V46.2418C16.7658 47.0823 16.4315 47.8881 15.8371 48.4824C15.2428 49.0768 14.437 49.4111 13.5965 49.412H13.3838C12.5433 49.4111 11.7375 49.0768 11.1432 48.4824C10.5488 47.8881 10.2146 47.0823 10.2137 46.2418V44.0838ZM20.6866 53.9589H18.1255C17.7225 53.9592 17.3347 54.1131 17.0411 54.3891L13.68 57.5412L10.4582 54.4073C10.1623 54.1194 9.76576 53.9584 9.35295 53.9585H6.63565C5.715 53.9583 4.8044 54.1498 3.96177 54.5207C3.11914 54.8916 2.36293 55.4338 1.74123 56.1129C1.11953 56.7919 0.645954 57.5929 0.350626 58.4649C0.0552983 59.3369 -0.0553179 60.2608 0.0258124 61.1779V76.0506C0.0260199 76.6116 0.136814 77.167 0.35186 77.6851C0.566906 78.2032 0.881985 78.6739 1.27907 79.0701C1.67616 79.4664 2.14747 79.7804 2.66605 79.9944C3.18462 80.2083 3.74029 80.318 4.30126 80.317H4.34134C4.7705 80.3118 5.19626 80.2402 5.60353 80.1048L6.27697 106.61C6.30577 107.454 6.572 108.272 7.04505 108.971C7.5181 109.67 8.17878 110.222 8.95121 110.563C9.72363 110.903 10.5765 111.019 11.4117 110.896C12.2469 110.774 13.0307 110.419 13.673 109.871C14.3164 110.419 15.1016 110.775 15.9383 110.897C16.7749 111.019 17.629 110.902 18.4021 110.56C19.1752 110.217 19.8359 109.664 20.3082 108.962C20.7804 108.261 21.0449 107.441 21.0713 106.596L21.7441 80.1202C22.3835 80.3217 23.0615 80.3698 23.723 80.2606C24.3845 80.1513 25.011 79.8878 25.5517 79.4914C26.0924 79.0949 26.5321 78.5767 26.8353 77.9787C27.1385 77.3807 27.2965 76.7197 27.2967 76.0492V61.1779C27.3777 60.2608 27.2671 59.3369 26.9717 58.465C26.6763 57.593 26.2027 56.7921 25.581 56.1131C24.9593 55.4341 24.2031 54.8919 23.3604 54.5211C22.5178 54.1502 21.6072 53.9588 20.6866 53.9589ZM16.5812 107.773C16.4075 107.773 16.2355 107.739 16.075 107.672C15.9145 107.606 15.7687 107.508 15.6459 107.385C15.5231 107.263 15.4256 107.117 15.3592 106.956C15.2927 106.796 15.2585 106.624 15.2586 106.45V79.4902C15.2586 79.0698 15.0916 78.6667 14.7943 78.3694C14.497 78.0721 14.0939 77.9051 13.6735 77.9051C13.2531 77.9051 12.8499 78.0721 12.5526 78.3694C12.2554 78.6667 12.0884 79.0698 12.0884 79.4902V106.45C12.0886 106.71 12.0123 106.964 11.8689 107.181C11.7256 107.398 11.5216 107.567 11.2823 107.668C11.0431 107.77 10.7794 107.798 10.524 107.751C10.2687 107.703 10.033 107.581 9.8466 107.4C9.60288 107.168 9.45891 106.85 9.44512 106.514L8.67974 76.3902H18.6658L17.9009 106.497C17.89 106.84 17.7461 107.165 17.4997 107.403C17.2533 107.641 16.9239 107.774 16.5812 107.773ZM24.1342 60.9446C24.129 60.9976 24.1262 61.0511 24.1262 61.1031V76.0483C24.1221 76.3372 24.0044 76.6128 23.7987 76.8156C23.593 77.0184 23.3157 77.1321 23.0268 77.1321C22.7379 77.1321 22.4606 77.0184 22.2548 76.8156C22.0491 76.6128 21.9314 76.3372 21.9273 76.0483V72.8935L21.9427 72.2844C21.9442 72.2 21.939 72.1155 21.9273 72.0319V66.0441C21.9273 65.6237 21.7603 65.2205 21.463 64.9233C21.1657 64.626 20.7626 64.459 20.3422 64.459C19.9218 64.459 19.5186 64.626 19.2213 64.9233C18.9241 65.2205 18.7571 65.6237 18.7571 66.0441V72.8478L18.7476 73.2201H8.59958L8.57376 72.2036C8.57198 72.1437 8.56684 72.084 8.55837 72.0247V66.0441C8.55837 65.6237 8.39137 65.2205 8.0941 64.9233C7.79684 64.626 7.39367 64.459 6.97328 64.459C6.55288 64.459 6.14971 64.626 5.85244 64.9233C5.55518 65.2205 5.38818 65.6237 5.38818 66.0441V75.9736C5.3967 76.2715 5.28847 76.5609 5.08659 76.78C4.88471 76.9992 4.60516 77.1308 4.3076 77.1468C4.16059 77.1482 4.01478 77.1202 3.8787 77.0646C3.74261 77.0089 3.61899 76.9267 3.51505 76.8227C3.41328 76.7217 3.33266 76.6013 3.27788 76.4687C3.2231 76.3362 3.19527 76.194 3.196 76.0506V61.1031C3.196 61.0495 3.19328 60.9958 3.18785 60.9424C3.13908 60.4604 3.19195 59.9735 3.34304 59.5132C3.49414 59.0529 3.74009 58.6294 4.06502 58.27C4.38995 57.9107 4.78664 57.6234 5.22946 57.4269C5.67229 57.2304 6.1514 57.1289 6.63588 57.1291H8.7094L12.5548 60.8695C12.565 60.8794 12.5764 60.8878 12.587 60.8975C12.6083 60.9172 12.6298 60.9365 12.6522 60.9548C12.671 60.9702 12.69 60.9849 12.709 61.0001C12.7317 61.0178 12.7561 61.0348 12.7802 61.0508C12.7999 61.0642 12.82 61.0767 12.8402 61.0889C12.8644 61.1036 12.8888 61.1176 12.9137 61.131C12.9353 61.1426 12.9568 61.1536 12.9787 61.1638C13.0007 61.174 13.0274 61.1865 13.0523 61.1967C13.0772 61.2069 13.0992 61.2155 13.123 61.2238C13.1468 61.2322 13.1712 61.2406 13.1957 61.2481C13.2201 61.2555 13.2455 61.2626 13.2706 61.2689C13.2958 61.2752 13.3186 61.2805 13.3429 61.2854C13.3671 61.2904 13.3947 61.2952 13.421 61.2992C13.4472 61.3033 13.4688 61.306 13.493 61.3085C13.5172 61.311 13.546 61.3133 13.5725 61.3149C13.599 61.3165 13.6202 61.3171 13.6445 61.3174C13.6687 61.3176 13.6979 61.3174 13.7246 61.316C13.7514 61.3146 13.7724 61.3137 13.7964 61.3115C13.8204 61.3092 13.8494 61.3063 13.8761 61.3026C13.9028 61.299 13.9237 61.2956 13.9475 61.2913C13.9712 61.287 14 61.2809 14.0263 61.2748C14.0525 61.2687 14.0715 61.2632 14.0958 61.2567C14.12 61.2501 14.1481 61.2411 14.1741 61.232C14.1968 61.2243 14.2194 61.2161 14.2421 61.2075C14.2681 61.1973 14.2937 61.1863 14.3193 61.1747C14.3406 61.165 14.3618 61.155 14.3827 61.1441C14.4083 61.131 14.4334 61.1172 14.4583 61.1027C14.4785 61.0909 14.4984 61.0789 14.5183 61.0662C14.5428 61.0504 14.5668 61.0339 14.5906 61.0166C14.6098 61.0026 14.629 60.9881 14.6481 60.9732C14.6707 60.9551 14.6934 60.9363 14.7144 60.9168C14.7251 60.9073 14.7371 60.8991 14.7468 60.8894L18.7548 57.1293H20.6889C21.1734 57.1291 21.6527 57.2306 22.0955 57.4272C22.5384 57.6238 22.9351 57.9112 23.26 58.2708C23.5848 58.6303 23.8306 59.0541 23.9813 59.5146C24.1321 59.9751 24.1846 60.4621 24.1353 60.9442L24.1342 60.9446ZM70.9635 37.7434H70.7486C69.0676 37.7453 67.456 38.4139 66.2674 39.6026C65.0788 40.7912 64.4101 42.4028 64.4082 44.0838V46.2418C64.4101 47.9228 65.0788 49.5343 66.2674 50.723C67.456 51.9116 69.0676 52.5802 70.7486 52.5821H70.9635C72.6445 52.5802 74.2561 51.9116 75.4447 50.723C76.6333 49.5343 77.3019 47.9228 77.3039 46.2418V44.0838C77.3019 42.4028 76.6333 40.7912 75.4447 39.6026C74.2561 38.4139 72.6445 37.7453 70.9635 37.7434ZM74.1337 46.2418C74.1328 47.0823 73.7985 47.8881 73.2041 48.4824C72.6098 49.0768 71.804 49.4111 70.9635 49.412H70.7486C69.9081 49.4111 69.1023 49.0768 68.5079 48.4824C67.9136 47.8881 67.5793 47.0823 67.5784 46.2418V44.0838C67.5793 43.2433 67.9136 42.4374 68.5079 41.8431C69.1023 41.2488 69.9081 40.9145 70.7486 40.9136H70.9635C71.804 40.9145 72.6098 41.2488 73.2041 41.8431C73.7985 42.4374 74.1328 43.2433 74.1337 44.0838V46.2418ZM78.0511 53.9589H75.4923C75.0893 53.9592 74.7015 54.1131 74.4079 54.3891L71.0464 57.5428L67.8225 54.4073C67.5267 54.1196 67.1303 53.9587 66.7177 53.9587H64.0027C63.0819 53.9583 62.1711 54.1495 61.3282 54.5202C60.4854 54.8909 59.7289 55.433 59.107 56.112C58.4851 56.791 58.0113 57.592 57.7158 58.4641C57.4203 59.3362 57.3095 60.2602 57.3906 61.1774V76.0506C57.3908 76.6117 57.5016 77.1672 57.7168 77.6855C57.9319 78.2037 58.2471 78.6744 58.6444 79.0707C59.0416 79.4669 59.5131 79.781 60.0319 79.9948C60.5506 80.2087 61.1065 80.3182 61.6676 80.317H61.7079C62.1368 80.3118 62.5624 80.2402 62.9694 80.1048L63.6415 106.614C63.6715 107.458 63.9386 108.275 64.4121 108.974C64.8857 109.672 65.5466 110.223 66.3189 110.563C67.0912 110.903 67.9437 111.018 68.7786 110.896C69.6135 110.773 70.397 110.418 71.0391 109.871C71.6826 110.419 72.4679 110.775 73.3047 110.897C74.1414 111.018 74.9956 110.901 75.7687 110.559C76.5419 110.217 77.2027 109.663 77.675 108.962C78.1473 108.26 78.4119 107.44 78.4383 106.595L79.1093 80.1188C79.7487 80.3207 80.4267 80.369 81.0882 80.2599C81.7498 80.1508 82.3764 79.8873 82.9171 79.4909C83.4579 79.0945 83.8976 78.5762 84.2007 77.9781C84.5037 77.3799 84.6616 76.7188 84.6614 76.0483V61.1779C84.7425 60.2608 84.6318 59.3369 84.3364 58.4649C84.041 57.593 83.5674 56.792 82.9457 56.113C82.3239 55.434 81.5677 54.8919 80.725 54.521C79.8824 54.1501 78.9718 53.9587 78.0511 53.9589ZM73.948 107.773C73.7743 107.773 73.6023 107.739 73.4418 107.672C73.2814 107.606 73.1356 107.508 73.0128 107.386C72.89 107.263 72.7925 107.117 72.7261 106.957C72.6597 106.796 72.6255 106.624 72.6256 106.45V79.4902C72.6256 79.0698 72.4586 78.6667 72.1613 78.3694C71.864 78.0721 71.4609 77.9051 71.0405 77.9051C70.6201 77.9051 70.2169 78.0721 69.9196 78.3694C69.6224 78.6667 69.4554 79.0698 69.4554 79.4902V106.45C69.4552 106.796 69.3199 107.127 69.0786 107.374C68.8373 107.621 68.509 107.764 68.1638 107.773C67.8185 107.781 67.4837 107.654 67.2308 107.419C66.9778 107.184 66.8268 106.859 66.8099 106.514L66.0465 76.39H76.0326L75.27 106.497C75.2589 106.84 75.1147 107.165 74.8679 107.403C74.621 107.641 74.291 107.774 73.948 107.773ZM81.4989 60.9424C81.4935 60.9958 81.4908 61.0495 81.4908 61.1031V76.0483C81.4866 76.3372 81.369 76.6128 81.1632 76.8156C80.9575 77.0184 80.6802 77.1321 80.3913 77.1321C80.1024 77.1321 79.8251 77.0184 79.6193 76.8156C79.4136 76.6128 79.2959 76.3372 79.2918 76.0483V72.8951L79.3072 72.2837C79.3087 72.1993 79.3036 72.1149 79.2918 72.0312V66.0441C79.2918 65.6237 79.1248 65.2205 78.8275 64.9233C78.5303 64.626 78.1271 64.459 77.7067 64.459C77.2863 64.459 76.8831 64.626 76.5859 64.9233C76.2886 65.2205 76.1216 65.6237 76.1216 66.0441V72.8496L76.1123 73.2201H65.9661L65.9403 72.2036C65.9385 72.1435 65.9334 72.0837 65.9249 72.0242V66.0439C65.9249 65.6235 65.7579 65.2203 65.4607 64.9231C65.1634 64.6258 64.7602 64.4588 64.3398 64.4588C63.9194 64.4588 63.5163 64.6258 63.219 64.9231C62.9217 65.2203 62.7547 65.6235 62.7547 66.0439V75.9734C62.7597 76.2702 62.6502 76.5577 62.4491 76.7761C62.2479 76.9945 61.9705 77.1271 61.6742 77.1466C61.5288 77.1486 61.3845 77.1218 61.2497 77.0676C61.1148 77.0135 60.992 76.9331 60.8884 76.8311C60.7848 76.7291 60.7025 76.6076 60.6463 76.4736C60.5901 76.3396 60.561 76.1957 60.5607 76.0504V61.1029C60.5607 61.0497 60.558 60.9963 60.5528 60.9433C60.5039 60.461 60.5567 59.9739 60.7078 59.5133C60.8589 59.0527 61.105 58.629 61.4301 58.2695C61.7553 57.91 62.1523 57.6227 62.5954 57.4262C63.0385 57.2298 63.5179 57.1285 64.0027 57.1289H66.0746L69.9225 60.8695C69.932 60.8787 69.9427 60.8867 69.9524 60.8957C69.9751 60.9166 69.9977 60.9365 70.0204 60.9557C70.0382 60.9707 70.0566 60.9847 70.0749 60.9988C70.0987 61.0166 70.1227 61.0339 70.1472 61.0504C70.1669 61.0637 70.187 61.0762 70.2072 61.0884C70.2312 61.1029 70.2554 61.117 70.2799 61.1301C70.3043 61.1432 70.324 61.1527 70.3464 61.1636C70.3689 61.1745 70.394 61.1863 70.418 61.1955C70.442 61.2048 70.4662 61.2148 70.4907 61.2236C70.5151 61.2324 70.5376 61.2399 70.5613 61.2463C70.5851 61.2526 70.6125 61.2612 70.6383 61.2689C70.6641 61.2766 70.685 61.2802 70.7087 61.285C70.7325 61.2897 70.7615 61.2949 70.7882 61.299C70.8149 61.3031 70.8353 61.3056 70.8589 61.3083C70.8824 61.311 70.9123 61.3133 70.9393 61.3146C70.9662 61.316 70.987 61.3167 71.0108 61.3171C71.0346 61.3176 71.0638 61.3171 71.0905 61.3158C71.1172 61.3144 71.139 61.3133 71.1632 61.3112C71.1874 61.3092 71.2153 61.306 71.2416 61.3024C71.2678 61.2988 71.2902 61.2952 71.3145 61.2909C71.3387 61.2866 71.3656 61.2807 71.391 61.2748C71.4164 61.2689 71.4395 61.2628 71.4632 61.256C71.487 61.2492 71.5135 61.2408 71.5384 61.2334C71.5633 61.2259 71.5851 61.2168 71.6084 61.2078C71.6317 61.1987 71.6582 61.1874 71.6827 61.1761C71.7071 61.1647 71.7268 61.1555 71.7488 61.1441C71.7708 61.1328 71.7979 61.1179 71.8219 61.1038C71.8459 61.0898 71.8634 61.0794 71.8835 61.0662C71.9075 61.0506 71.9313 61.0343 71.9548 61.0171C71.9741 61.0031 71.9933 60.9886 72.0124 60.9736C72.035 60.9553 72.0576 60.9363 72.0803 60.9166C72.0907 60.9075 72.1016 60.8993 72.1118 60.8901L76.1198 57.1311H78.0516C78.5361 57.131 79.0152 57.2324 79.4581 57.4289C79.901 57.6254 80.2977 57.9127 80.6227 58.272C80.9476 58.6314 81.1936 59.055 81.3447 59.5153C81.4958 59.9757 81.5486 60.4626 81.4998 60.9446L81.4989 60.9424ZM42.0672 37.7434C40.3863 37.7453 38.7747 38.4139 37.586 39.6026C36.3974 40.7912 35.7288 42.4028 35.7269 44.0838V46.2418C35.7288 47.9228 36.3974 49.5343 37.586 50.723C38.7747 51.9116 40.3863 52.5802 42.0672 52.5821H42.2799C43.9608 52.5802 45.5724 51.9116 46.7611 50.723C47.9497 49.5343 48.6183 47.9228 48.6202 46.2418V44.0838C48.6183 42.4028 47.9497 40.7912 46.7611 39.6026C45.5724 38.4139 43.9608 37.7453 42.2799 37.7434H42.0672ZM45.4503 44.0838V46.2418C45.4494 47.0823 45.1151 47.8881 44.5208 48.4824C43.9264 49.0768 43.1206 49.4111 42.2801 49.412H42.0675C41.227 49.4111 40.4211 49.0768 39.8268 48.4824C39.2325 47.8881 38.8982 47.0823 38.8973 46.2418V44.0838C38.8982 43.2433 39.2325 42.4374 39.8268 41.8431C40.4211 41.2488 41.227 40.9145 42.0675 40.9136H42.2801C43.1206 40.9146 43.9264 41.2489 44.5207 41.8432C45.115 42.4375 45.4493 43.2433 45.4503 44.0838ZM49.3677 53.9589H46.8089C46.4059 53.9592 46.0181 54.1131 45.7245 54.3891L42.3634 57.5412L39.1421 54.4073C38.8461 54.1194 38.4496 53.9584 38.0368 53.9585H35.3195C34.3988 53.9583 33.4881 54.1497 32.6454 54.5206C31.8026 54.8914 31.0463 55.4335 30.4244 56.1125C29.8025 56.7914 29.3287 57.5924 29.0331 58.4643C28.7375 59.3363 28.6266 60.2603 28.7074 61.1774V76.0504C28.7076 76.6115 28.8184 77.167 29.0336 77.6852C29.2487 78.2035 29.564 78.6742 29.9612 79.0704C30.3585 79.4667 30.83 79.7808 31.3487 79.9946C31.8675 80.2085 32.4233 80.3179 32.9844 80.3167H33.0247C33.4539 80.3116 33.8797 80.24 34.2869 80.1046L34.9606 106.614C34.9903 107.457 35.2572 108.275 35.7305 108.973C36.2038 109.672 36.8645 110.223 37.6366 110.563C38.4088 110.903 39.2611 111.018 40.0959 110.895C40.9306 110.773 41.714 110.418 42.3559 109.87C42.9994 110.419 43.7847 110.774 44.6214 110.896C45.4581 111.018 46.3122 110.901 47.0853 110.559C47.8584 110.216 48.5191 109.663 48.9914 108.961C49.4637 108.26 49.7284 107.44 49.7549 106.595L50.4277 80.1191C51.0671 80.3207 51.7451 80.3689 52.4067 80.2598C53.0682 80.1506 53.6947 79.8871 54.2355 79.4907C54.7762 79.0942 55.216 78.576 55.5191 77.9779C55.8223 77.3799 55.9802 76.7188 55.9803 76.0483V61.1779C56.0611 60.2607 55.9502 59.3368 55.6546 58.4648C55.359 57.5928 54.8852 56.7919 54.2633 56.1129C53.6414 55.434 52.885 54.8918 52.0423 54.521C51.1996 54.1502 50.2889 53.9587 49.3682 53.9589H49.3677ZM45.2646 107.773C45.0909 107.773 44.9189 107.739 44.7584 107.672C44.5979 107.606 44.4521 107.508 44.3293 107.385C44.2065 107.263 44.109 107.117 44.0426 106.956C43.9761 106.796 43.9419 106.624 43.9419 106.45V79.4902C43.9419 79.0698 43.775 78.6667 43.4777 78.3694C43.1804 78.0721 42.7772 77.9051 42.3569 77.9051C41.9365 77.9051 41.5333 78.0721 41.236 78.3694C40.9388 78.6667 40.7718 79.0698 40.7718 79.4902V106.45C40.7704 106.795 40.6349 107.125 40.3939 107.371C40.1529 107.617 39.8255 107.759 39.4813 107.767C39.1371 107.776 38.8032 107.649 38.5506 107.415C38.2981 107.181 38.1467 106.858 38.1287 106.514L37.3634 76.3902H47.3494L46.5848 106.497C46.5738 106.84 46.4298 107.165 46.1833 107.403C45.9369 107.641 45.6073 107.774 45.2646 107.773ZM52.8176 60.9446C52.8124 60.9976 52.8096 61.0511 52.8096 61.1031V76.0483C52.8096 76.3399 52.6938 76.6195 52.4876 76.8257C52.2815 77.0319 52.0018 77.1477 51.7103 77.1477C51.4187 77.1477 51.1391 77.0319 50.9329 76.8257C50.7267 76.6195 50.6109 76.3399 50.6109 76.0483V72.8937L50.6263 72.2844C50.6278 72.2 50.6227 72.1155 50.6109 72.0319V66.0441C50.6109 65.6237 50.4439 65.2205 50.1466 64.9233C49.8494 64.626 49.4462 64.459 49.0258 64.459C48.6054 64.459 48.2022 64.626 47.905 64.9233C47.6077 65.2205 47.4407 65.6237 47.4407 66.0441V72.8478L47.4312 73.2201H37.2832L37.2574 72.2036C37.2556 72.1437 37.2505 72.084 37.242 72.0247V66.0441C37.242 65.6237 37.075 65.2205 36.7777 64.9233C36.4805 64.626 36.0773 64.459 35.6569 64.459C35.2365 64.459 34.8333 64.626 34.5361 64.9233C34.2388 65.2205 34.0718 65.6237 34.0718 66.0441V75.9736C34.0803 76.2715 33.9721 76.5609 33.7702 76.78C33.5683 76.9992 33.2888 77.1308 32.9912 77.1468H32.9808C32.8363 77.1475 32.6932 77.1196 32.5595 77.0649C32.4258 77.0101 32.3042 76.9295 32.2017 76.8277C32.0993 76.7258 32.0179 76.6048 31.9623 76.4714C31.9067 76.3381 31.878 76.195 31.8778 76.0506V61.1031C31.8778 61.0499 31.8751 60.9965 31.8699 60.9446C31.8212 60.4624 31.8742 59.9754 32.0254 59.5149C32.1766 59.0545 32.4227 58.6308 32.7478 58.2714C33.0729 57.9119 33.4697 57.6246 33.9128 57.4281C34.3558 57.2315 34.8351 57.1301 35.3197 57.1302H37.3933L41.2385 60.8706C41.2484 60.8803 41.2593 60.8885 41.2695 60.898C41.2921 60.9181 41.3132 60.9376 41.3356 60.9562C41.3543 60.9713 41.3733 60.9864 41.3927 61.0015C41.4153 61.0187 41.438 61.0354 41.4624 61.0513C41.4869 61.0671 41.5038 61.0782 41.5249 61.0909C41.546 61.1036 41.5716 61.1185 41.5953 61.1312C41.6191 61.1439 41.6406 61.1539 41.6633 61.1659C41.6859 61.1779 41.7097 61.1885 41.733 61.1971C41.7563 61.2057 41.7824 61.2168 41.8075 61.2259C41.8326 61.2349 41.8528 61.2417 41.8754 61.2485C41.8981 61.2553 41.9275 61.2637 41.954 61.2712C41.9767 61.2768 41.9993 61.2823 42.0231 61.287C42.0498 61.2925 42.0767 61.2972 42.1037 61.3013C42.1263 61.3049 42.149 61.3079 42.1734 61.3103C42.2006 61.3133 42.2278 61.3153 42.255 61.3169C42.2776 61.3183 42.3021 61.3189 42.3254 61.3192C42.3526 61.3192 42.3795 61.3192 42.4065 61.3178C42.4334 61.3165 42.4538 61.3156 42.4776 61.3135C42.5013 61.3115 42.5305 61.3083 42.5573 61.3047C42.584 61.3011 42.605 61.2977 42.6288 61.2934C42.6526 61.2891 42.6809 61.2829 42.7069 61.2768C42.733 61.2707 42.754 61.2653 42.7774 61.2585C42.8007 61.2517 42.829 61.2429 42.8546 61.2343C42.8802 61.2257 42.8999 61.2184 42.9225 61.2093C42.9452 61.2003 42.9735 61.1883 42.9986 61.177C43.0237 61.1656 43.0418 61.1568 43.0631 61.1459C43.0883 61.133 43.1132 61.1195 43.1376 61.105C43.158 61.0932 43.1784 61.081 43.1983 61.0681C43.2228 61.0524 43.2465 61.0357 43.2703 61.0187C43.2898 61.0046 43.3088 60.9902 43.3278 60.9752C43.3505 60.9571 43.3731 60.9383 43.3942 60.9188C43.4048 60.9093 43.4168 60.9012 43.4266 60.8914L47.4346 57.1325H49.3661C49.8508 57.1323 50.3301 57.2338 50.7731 57.4303C51.216 57.6269 51.6129 57.9141 51.938 58.2736C52.2631 58.633 52.5092 59.0566 52.6604 59.517C52.8116 59.9775 52.8646 60.4645 52.816 60.9467L52.8176 60.9446Z" fill="#041D05"/>
<path d="M61.863 6.48535H35.9307V9.65554H61.863V6.48535Z" fill="#041D05"/>
<path d="M68.6493 12.7803H35.9307V15.9505H68.6493V12.7803Z" fill="#041D05"/>
<path d="M14.4027 32.6914C14.6619 32.8245 14.9528 32.8836 15.2435 32.8622C15.5341 32.8407 15.8132 32.7396 16.0501 32.5698L22.5716 27.8961H63.0784C63.4988 27.8961 63.902 27.7291 64.1992 27.4318C64.4965 27.1345 64.6635 26.7314 64.6635 26.311V22.4365H66.5568L73.0783 27.1083C73.3152 27.2779 73.5943 27.379 73.885 27.4004C74.1756 27.4218 74.4665 27.3627 74.7257 27.2295C74.9849 27.0963 75.2024 26.8942 75.3542 26.6455C75.5061 26.3968 75.5864 26.111 75.5864 25.8196V1.58509C75.5864 1.1647 75.4194 0.761526 75.1221 0.464263C74.8249 0.167 74.4217 0 74.0013 0H30.5772C30.1568 0 29.7536 0.167 29.4564 0.464263C29.1591 0.761526 28.9921 1.1647 28.9921 1.58509V5.46178H15.1271C14.7067 5.46178 14.3035 5.62878 14.0063 5.92604C13.709 6.2233 13.542 6.62648 13.542 7.04687V31.2807C13.5418 31.5722 13.6221 31.8582 13.774 32.1071C13.9258 32.356 14.1434 32.5582 14.4027 32.6914ZM32.1623 3.17019H72.4169V22.7348L67.989 19.5623C67.7199 19.3695 67.3971 19.2659 67.0661 19.2659H32.1623V3.17019ZM16.7122 8.63196H28.9921V20.8508C28.9921 21.2712 29.1591 21.6743 29.4564 21.9716C29.7536 22.2689 30.1568 22.4359 30.5772 22.4359H61.4933V24.7252H22.063C21.7318 24.7252 21.409 24.8289 21.1398 25.0218L16.712 28.1947V8.63196H16.7122Z" fill="#041D05"/>
</svg>
